<svg xmlns="http://www.w3.org/2000/svg" viewBox="0 0 27.8 27.8"><g id="Layer_2" data-name="Layer 2"><g id="layout"><path d="M13.9,27.8a13.9,13.9,0,1,1,9.84-4.07h0A13.87,13.87,0,0,1,13.9,27.8Zm0-27a13.13,13.13,0,1,0,9.28,22.41h0A13.13,13.13,0,0,0,13.91.77Z"/><path d="M8.21,20a.39.39,0,0,1-.27-.12.38.38,0,0,1,0-.54L19.19,8.07a.39.39,0,0,1,.55,0,.38.38,0,0,1,0,.54L8.49,19.86A.39.39,0,0,1,8.21,20Z"/><path d="M19.46,20a.36.36,0,0,1-.27-.12L7.94,8.61a.38.38,0,0,1,0-.54.39.39,0,0,1,.55,0L19.74,19.32a.38.38,0,0,1,0,.54A.39.39,0,0,1,19.46,20Z"/></g></g></svg>